<mxfile host="app.diagrams.net" modified="2024-03-21T09:06:21.180Z" agent="Mozilla/5.0 (X11; Linux x86_64) AppleWebKit/537.36 (KHTML, like Gecko) Chrome/122.0.0.0 Safari/537.36" etag="VO40UFJqC-KAamZeEFkp" version="24.0.7" type="github">
  <diagram name="Page-1" id="BAc7BfIP3QMbL2KYN2eO">
    <mxGraphModel dx="4932" dy="2330" grid="1" gridSize="10" guides="1" tooltips="1" connect="1" arrows="1" fold="1" page="1" pageScale="1" pageWidth="827" pageHeight="1169" math="0" shadow="0">
      <root>
        <mxCell id="0" />
        <mxCell id="1" parent="0" />
        <mxCell id="ZyElnYu3EGaNJUJICbih-23" value="" style="rounded=0;whiteSpace=wrap;html=1;fillColor=none;dashed=1;" vertex="1" parent="1">
          <mxGeometry x="-40" y="250" width="590" height="350" as="geometry" />
        </mxCell>
        <mxCell id="ZyElnYu3EGaNJUJICbih-24" value="" style="shape=cylinder3;whiteSpace=wrap;html=1;boundedLbl=1;backgroundOutline=1;size=15;" vertex="1" parent="1">
          <mxGeometry x="705" y="350" width="60" height="80" as="geometry" />
        </mxCell>
        <mxCell id="ZyElnYu3EGaNJUJICbih-25" value="&lt;a href=&quot;http://localhost/phpmyadmin/sql.php?db=vision_dev&amp;amp;table=captured_images&amp;amp;pos=0&quot; title=&quot;&quot; style=&quot;text-decoration-line: none; color: rgb(35, 90, 129); cursor: pointer; outline: none; font-family: sans-serif; font-size: 13.12px; font-weight: 700; text-align: left; text-wrap: wrap; background-color: rgb(255, 255, 255);&quot;&gt;captured_images&lt;/a&gt;" style="text;html=1;align=center;verticalAlign=middle;resizable=0;points=[];autosize=1;strokeColor=none;fillColor=none;" vertex="1" parent="1">
          <mxGeometry x="670" y="428" width="130" height="30" as="geometry" />
        </mxCell>
        <mxCell id="ZyElnYu3EGaNJUJICbih-26" value="" style="shape=cylinder3;whiteSpace=wrap;html=1;boundedLbl=1;backgroundOutline=1;size=15;" vertex="1" parent="1">
          <mxGeometry x="705" y="480" width="60" height="80" as="geometry" />
        </mxCell>
        <mxCell id="ZyElnYu3EGaNJUJICbih-27" value="&lt;a href=&quot;http://localhost/phpmyadmin/sql.php?db=vision_dev&amp;amp;table=captured_images&amp;amp;pos=0&quot; title=&quot;&quot; style=&quot;text-decoration-line: none; color: rgb(35, 90, 129); cursor: pointer; outline: none; font-family: sans-serif; font-size: 13.12px; font-weight: 700; text-align: left; text-wrap: wrap; background-color: rgb(255, 255, 255);&quot;&gt;captured_images&lt;/a&gt;" style="text;html=1;align=center;verticalAlign=middle;resizable=0;points=[];autosize=1;strokeColor=none;fillColor=none;" vertex="1" parent="1">
          <mxGeometry x="670" y="558" width="130" height="30" as="geometry" />
        </mxCell>
        <mxCell id="ZyElnYu3EGaNJUJICbih-28" value="" style="shape=cylinder3;whiteSpace=wrap;html=1;boundedLbl=1;backgroundOutline=1;size=15;" vertex="1" parent="1">
          <mxGeometry x="705" y="610" width="60" height="80" as="geometry" />
        </mxCell>
        <mxCell id="ZyElnYu3EGaNJUJICbih-29" value="&lt;a href=&quot;http://localhost/phpmyadmin/sql.php?db=vision_dev&amp;amp;table=captured_images&amp;amp;pos=0&quot; title=&quot;&quot; style=&quot;text-decoration-line: none; color: rgb(35, 90, 129); cursor: pointer; outline: none; font-family: sans-serif; font-size: 13.12px; font-weight: 700; text-align: left; text-wrap: wrap; background-color: rgb(255, 255, 255);&quot;&gt;captured_images&lt;/a&gt;" style="text;html=1;align=center;verticalAlign=middle;resizable=0;points=[];autosize=1;strokeColor=none;fillColor=none;" vertex="1" parent="1">
          <mxGeometry x="670" y="688" width="130" height="30" as="geometry" />
        </mxCell>
        <mxCell id="ZyElnYu3EGaNJUJICbih-30" value="" style="shape=cylinder3;whiteSpace=wrap;html=1;boundedLbl=1;backgroundOutline=1;size=15;" vertex="1" parent="1">
          <mxGeometry x="705" y="750" width="60" height="80" as="geometry" />
        </mxCell>
        <mxCell id="ZyElnYu3EGaNJUJICbih-31" value="&lt;a href=&quot;http://localhost/phpmyadmin/sql.php?db=vision_dev&amp;amp;table=phst_data_cleaning_jobs&amp;amp;pos=0&quot; title=&quot;&quot; style=&quot;color: rgb(35, 90, 129); cursor: pointer; outline: none; font-family: sans-serif; font-size: 13.12px; font-weight: 700; text-align: left; text-wrap: wrap; background-color: rgb(255, 255, 255);&quot;&gt;phst_data_cleaning_jobs&lt;/a&gt;" style="text;html=1;align=center;verticalAlign=middle;resizable=0;points=[];autosize=1;strokeColor=none;fillColor=none;" vertex="1" parent="1">
          <mxGeometry x="645" y="828" width="180" height="30" as="geometry" />
        </mxCell>
        <mxCell id="ZyElnYu3EGaNJUJICbih-32" value="" style="sketch=0;points=[[0.015,0.015,0],[0.985,0.015,0],[0.985,0.985,0],[0.015,0.985,0],[0.25,0,0],[0.5,0,0],[0.75,0,0],[1,0.25,0],[1,0.5,0],[1,0.75,0],[0.75,1,0],[0.5,1,0],[0.25,1,0],[0,0.75,0],[0,0.5,0],[0,0.25,0]];verticalLabelPosition=bottom;html=1;verticalAlign=top;aspect=fixed;align=center;pointerEvents=1;shape=mxgraph.cisco19.pos;fillColor=#005073;strokeColor=none;" vertex="1" parent="1">
          <mxGeometry x="-280" y="130" width="92.16" height="72" as="geometry" />
        </mxCell>
        <mxCell id="ZyElnYu3EGaNJUJICbih-33" value="" style="edgeStyle=orthogonalEdgeStyle;rounded=0;orthogonalLoop=1;jettySize=auto;html=1;" edge="1" parent="1" source="ZyElnYu3EGaNJUJICbih-35" target="ZyElnYu3EGaNJUJICbih-36">
          <mxGeometry relative="1" as="geometry" />
        </mxCell>
        <mxCell id="ZyElnYu3EGaNJUJICbih-34" value="" style="sketch=0;outlineConnect=0;fontColor=#232F3E;gradientColor=none;fillColor=#080A01;strokeColor=none;dashed=0;verticalLabelPosition=bottom;verticalAlign=top;align=center;html=1;fontSize=12;fontStyle=0;aspect=fixed;pointerEvents=1;shape=mxgraph.aws4.bucket;" vertex="1" parent="1">
          <mxGeometry x="690" y="60" width="75" height="78" as="geometry" />
        </mxCell>
        <mxCell id="ZyElnYu3EGaNJUJICbih-35" value="Sourcing Backend" style="text;html=1;align=center;verticalAlign=middle;whiteSpace=wrap;rounded=0;" vertex="1" parent="1">
          <mxGeometry x="-48" y="309" width="123" height="20" as="geometry" />
        </mxCell>
        <mxCell id="ZyElnYu3EGaNJUJICbih-36" value="" style="outlineConnect=0;dashed=0;verticalLabelPosition=bottom;verticalAlign=top;align=center;html=1;shape=mxgraph.aws3.android;fillColor=#8CC64F;gradientColor=none;" vertex="1" parent="1">
          <mxGeometry x="-9.25" y="257" width="45.5" height="52" as="geometry" />
        </mxCell>
        <mxCell id="ZyElnYu3EGaNJUJICbih-37" value="AWS S3 Bucket" style="text;html=1;align=center;verticalAlign=middle;resizable=0;points=[];autosize=1;strokeColor=none;fillColor=none;" vertex="1" parent="1">
          <mxGeometry x="672.5" y="138" width="110" height="30" as="geometry" />
        </mxCell>
        <mxCell id="ZyElnYu3EGaNJUJICbih-38" style="edgeStyle=orthogonalEdgeStyle;rounded=0;orthogonalLoop=1;jettySize=auto;html=1;entryX=0;entryY=0.55;entryDx=0;entryDy=0;entryPerimeter=0;" edge="1" parent="1" source="ZyElnYu3EGaNJUJICbih-32" target="ZyElnYu3EGaNJUJICbih-23">
          <mxGeometry relative="1" as="geometry" />
        </mxCell>
        <mxCell id="ZyElnYu3EGaNJUJICbih-39" style="edgeStyle=orthogonalEdgeStyle;rounded=0;orthogonalLoop=1;jettySize=auto;html=1;startArrow=classic;startFill=0;" edge="1" parent="1">
          <mxGeometry relative="1" as="geometry">
            <mxPoint x="299.99" y="316.0000000000001" as="sourcePoint" />
            <mxPoint x="689.9966391265859" y="70" as="targetPoint" />
            <Array as="points">
              <mxPoint x="599.99" y="316" />
              <mxPoint x="599.99" y="70" />
            </Array>
          </mxGeometry>
        </mxCell>
        <mxCell id="ZyElnYu3EGaNJUJICbih-40" value="" style="edgeStyle=orthogonalEdgeStyle;rounded=0;orthogonalLoop=1;jettySize=auto;html=1;" edge="1" parent="1" source="ZyElnYu3EGaNJUJICbih-41" target="ZyElnYu3EGaNJUJICbih-44">
          <mxGeometry relative="1" as="geometry" />
        </mxCell>
        <mxCell id="ZyElnYu3EGaNJUJICbih-41" value="Uploaded to the S3 bucket&lt;div&gt;bigbasket_sourcing/{date}/{sku}&lt;/div&gt;&lt;div&gt;and get the uloaded path&lt;/div&gt;" style="rounded=1;whiteSpace=wrap;html=1;fillColor=none;" vertex="1" parent="1">
          <mxGeometry x="110" y="280" width="190" height="70" as="geometry" />
        </mxCell>
        <mxCell id="ZyElnYu3EGaNJUJICbih-42" value="" style="edgeStyle=orthogonalEdgeStyle;rounded=0;orthogonalLoop=1;jettySize=auto;html=1;" edge="1" parent="1" source="ZyElnYu3EGaNJUJICbih-44" target="ZyElnYu3EGaNJUJICbih-45">
          <mxGeometry relative="1" as="geometry" />
        </mxCell>
        <mxCell id="ZyElnYu3EGaNJUJICbih-43" style="edgeStyle=orthogonalEdgeStyle;rounded=0;orthogonalLoop=1;jettySize=auto;html=1;exitX=1;exitY=0.5;exitDx=0;exitDy=0;" edge="1" parent="1" source="ZyElnYu3EGaNJUJICbih-44" target="ZyElnYu3EGaNJUJICbih-24">
          <mxGeometry relative="1" as="geometry" />
        </mxCell>
        <mxCell id="ZyElnYu3EGaNJUJICbih-44" value="Insert the data in caputured_images" style="rounded=1;whiteSpace=wrap;html=1;fillColor=none;" vertex="1" parent="1">
          <mxGeometry x="110" y="388" width="190" height="70" as="geometry" />
        </mxCell>
        <mxCell id="ZyElnYu3EGaNJUJICbih-45" value="Insert sourced sku into captured_images_cateogry" style="rounded=1;whiteSpace=wrap;html=1;fillColor=none;" vertex="1" parent="1">
          <mxGeometry x="110" y="500" width="190" height="70" as="geometry" />
        </mxCell>
      </root>
    </mxGraphModel>
  </diagram>
</mxfile>
